<svg width="50" height="50" viewBox="0 0 50 50" fill="none" xmlns="http://www.w3.org/2000/svg">
<path fill-rule="evenodd" clip-rule="evenodd" d="M39.0838 18.7987L33.4368 5.99609L2.99994 19.4103L10.339 36.0456V42.8342H43.6299V18.7783H39.0838V18.7987ZM10.3192 21.2856L9.27949 21.7137L10.3192 24.1397V30.3371L6.13999 20.4294L32.3161 9.33919L36.3322 18.7985H33.7023L31.0317 12.4991L16.1905 18.7985H10.3396V21.2856H10.3192ZM12.7444 40.4271H41.163V21.2435H12.7444V40.4271Z" fill="#5464F8"/>
<path d="M38.7574 23.6523H15.1703V38.0043H38.7574V23.6523Z" fill="#5464F8"/>
<path d="M25.7025 34.1711L25.2081 32.6235H22.7578L22.2634 34.1711H20.7158L23.1662 27.4648H24.8427L27.2716 34.1711H25.7025Z" fill="white"/>
<path d="M33.0103 33.2253C32.344 33.8487 31.4842 34.1711 30.431 34.1711H28.1096V27.4648H30.431C32.8169 27.4648 33.9991 28.5611 33.9991 30.732C34.0206 31.7637 33.6766 32.602 33.0103 33.2253Z" fill="white"/>
<path fill-rule="evenodd" clip-rule="evenodd" d="M23.9615 28.6055H24.0045C24.026 28.8634 24.0474 29.0568 24.0904 29.1858L24.8642 31.5072H23.0802L23.854 29.1643C23.897 28.9924 23.94 28.7989 23.9615 28.6055ZM29.5501 28.6283H30.3239C30.9688 28.6283 31.5061 28.8217 31.893 29.2086C32.3014 29.5955 32.4949 30.1114 32.4949 30.7777C32.4949 31.4655 32.3014 32.0029 31.9145 32.4113C31.5276 32.8196 31.0117 33.0131 30.3239 33.0131H29.5501V28.6283Z" fill="#5464F8"/>
<path fill-rule="evenodd" clip-rule="evenodd" d="M16.1901 18.8033H33.7019L31.0313 12.5039L16.1901 18.8033Z" fill="#AEC5FF"/>
<path fill-rule="evenodd" clip-rule="evenodd" d="M10.3394 21.2891V24.1726L9.27932 21.7172L10.3394 21.2891Z" fill="#58D1FD"/>
</svg>
