<svg width="50" height="50" viewBox="0 0 50 50" fill="none" xmlns="http://www.w3.org/2000/svg">
<path d="M19.3849 11.657H29.6147C30.3524 11.6446 31.055 11.3396 31.5678 10.8092C32.0806 10.2787 32.3616 9.56621 32.349 8.82851C32.3616 8.09082 32.0806 7.37834 31.5678 6.84786C31.055 6.31739 30.3524 6.0124 29.6147 6H19.3849C18.6472 6.0124 17.9447 6.31739 17.4319 6.84786C16.9191 7.37834 16.6381 8.09082 16.6507 8.82851C16.6381 9.56621 16.9191 10.2787 17.4319 10.8092C17.9447 11.3396 18.6472 11.6446 19.3849 11.657Z" fill="#5464F8"/>
<path d="M37.5367 9.77344H34.1242V10.0975C34.1429 10.9794 33.8077 11.8323 33.1932 12.4668C32.5787 13.1013 31.7356 13.465 30.8511 13.4771H18.3156C17.4311 13.465 16.588 13.1013 15.9735 12.4668C15.359 11.8323 15.0238 10.9794 15.0425 10.0975V9.77344H11.63C10.7434 9.78563 9.89803 10.1486 9.27983 10.7824C8.66162 11.4162 8.32127 12.269 8.33367 13.1531V39.7271C8.32058 41.5631 9.78923 43.0688 11.63 43.1068H37.5367C38.4232 43.0946 39.2687 42.7316 39.8869 42.0978C40.5051 41.464 40.8454 40.6112 40.833 39.7271V13.1531C40.8461 11.3171 39.3775 9.81138 37.5367 9.77344Z" fill="#5464F8"/>
<rect x="12.5" y="15.832" width="24.1667" height="23.3333" rx="4" fill="#4450C1"/>
<path d="M22.4867 29.2062L21.9923 27.6586H19.542L19.0476 29.2062H17.5L19.9504 22.5H21.6269L24.0558 29.2062H22.4867Z" fill="white"/>
<path d="M29.7945 28.2605C29.1282 28.8838 28.2684 29.2062 27.2152 29.2062H24.8938V22.5H27.2152C29.6011 22.5 30.7832 23.5962 30.7832 25.7671C30.8047 26.7989 30.4608 27.6371 29.7945 28.2605Z" fill="white"/>
<path fill-rule="evenodd" clip-rule="evenodd" d="M20.7455 23.6367H20.7885C20.81 23.8947 20.8315 24.0881 20.8745 24.2171L21.6483 26.5385H19.8642L20.638 24.1956C20.681 24.0236 20.724 23.8302 20.7455 23.6367ZM26.3342 23.6595H27.108C27.7528 23.6595 28.2901 23.853 28.677 24.2399C29.0854 24.6267 29.2789 25.1426 29.2789 25.8089C29.2789 26.4968 29.0854 27.0341 28.6985 27.4425C28.3116 27.8509 27.7958 28.0443 27.108 28.0443H26.3342V23.6595Z" fill="#4450C1"/>
<rect x="17.8125" y="34.4805" width="12.7083" height="0.625" rx="0.3125" stroke="white" stroke-width="0.625"/>
</svg>
