<svg width="50" height="50" viewBox="0 0 50 50" fill="none" xmlns="http://www.w3.org/2000/svg">
<path d="M31.6667 19.3333H36.6667C37.1044 19.3333 37.5379 19.4169 37.9423 19.5791C38.3467 19.7414 38.7142 19.9793 39.0237 20.2791C39.3332 20.579 39.5787 20.935 39.7463 21.3268C39.9138 21.7185 40 22.1384 40 22.5625V36.7708C40 37.1949 39.9138 37.6148 39.7463 38.0066C39.5787 38.3984 39.3332 38.7543 39.0237 39.0542C38.7142 39.3541 38.3467 39.5919 37.9423 39.7542C37.5379 39.9165 37.1044 40 36.6667 40H22C21.5623 40 21.1288 39.9165 20.7244 39.7542C20.32 39.5919 19.9525 39.3541 19.643 39.0542C19.3335 38.7543 19.0879 38.3984 18.9204 38.0066C18.7529 37.6148 18.6667 37.1949 18.6667 36.7708V31.9271H26.6667C27.9928 31.9271 29.2645 31.4168 30.2022 30.5084C31.1399 29.6 31.6667 28.368 31.6667 27.0833V19.3333ZM26 29.6667H11.3333C10.5082 29.6669 9.71223 29.3705 9.09956 28.835C8.4869 28.2995 8.10105 27.5629 8.01667 26.7677C8.00537 26.658 7.99981 26.5478 8.00001 26.4375V12.2292C8.00001 11.8051 8.08622 11.3852 8.25374 10.9934C8.42126 10.6016 8.66679 10.2457 8.97632 9.9458C9.28584 9.64595 9.65331 9.40809 10.0577 9.24581C10.4621 9.08352 10.8956 9 11.3333 9H26C26.4377 9 26.8712 9.08352 27.2756 9.24581C27.68 9.40809 28.0475 9.64595 28.357 9.9458C28.6666 10.2457 28.9121 10.6016 29.0796 10.9934C29.2471 11.3852 29.3333 11.8051 29.3333 12.2292V26.4375C29.3333 26.8616 29.2471 27.2815 29.0796 27.6732C28.9121 28.065 28.6666 28.421 28.357 28.7209C28.0475 29.0207 27.68 29.2586 27.2756 29.4209C26.8712 29.5831 26.4377 29.6667 26 29.6667Z" fill="#5464F8"/>
<path d="M41.0699 13.5935L40.6619 10.9053C40.6576 10.7355 40.6876 10.5666 40.7502 10.4082C40.8128 10.2498 40.9066 10.1051 41.0265 9.98227C41.1463 9.85945 41.2897 9.76097 41.4485 9.69248C41.6073 9.624 41.7783 9.58684 41.9518 9.58315C42.6813 9.56661 43.287 10.1325 43.3049 10.8472L43.7834 16.4346C43.7894 16.6496 43.7409 16.8531 43.6507 17.0337C43.5793 17.2397 43.4561 17.4249 43.2924 17.572C43.1286 17.7191 42.9296 17.8235 42.7138 17.8755C42.4979 17.9274 42.2721 17.9254 42.0573 17.8694C41.8425 17.8134 41.6455 17.7054 41.4847 17.5553L31.9158 8.6158C31.7791 8.50144 31.6677 8.361 31.5884 8.20308C31.509 8.04516 31.4634 7.87307 31.4543 7.69732C31.4453 7.52157 31.4729 7.34585 31.5355 7.1809C31.5982 7.01595 31.6945 6.86523 31.8187 6.73795C31.9429 6.61067 32.0923 6.5095 32.2578 6.44062C32.4233 6.37174 32.6014 6.3366 32.7812 6.33734C32.961 6.33808 33.1388 6.3747 33.3037 6.44494C33.4686 6.51518 33.6171 6.61759 33.7402 6.74589L41.0699 13.5935Z" fill="white"/>
<path d="M8.92211 36.2507L9.24961 38.9494C9.24881 39.1192 9.21377 39.2872 9.14651 39.4437C9.07924 39.6003 8.98107 39.7423 8.85763 39.8616C8.73418 39.981 8.58788 40.0753 8.42711 40.1392C8.26634 40.2031 8.09427 40.2354 7.92074 40.2341C7.19109 40.2298 6.60255 39.6468 6.60605 38.9319L6.29467 33.3332C6.29507 33.118 6.34965 32.9161 6.44524 32.7381C6.52268 32.5342 6.65138 32.3527 6.81945 32.2103C6.98753 32.0679 7.18956 31.9693 7.40688 31.9235C7.6242 31.8777 7.84981 31.8863 8.06287 31.9484C8.27593 32.0104 8.46956 32.1241 8.62589 32.2787L17.9236 41.4882C18.0568 41.6064 18.1639 41.7499 18.2385 41.9101C18.3131 42.0702 18.3536 42.2435 18.3574 42.4194C18.3612 42.5954 18.3284 42.7702 18.2608 42.9333C18.1933 43.0964 18.0924 43.2443 17.9645 43.368C17.8366 43.4917 17.6842 43.5885 17.5168 43.6526C17.3493 43.7167 17.1702 43.7468 16.9905 43.7409C16.8107 43.735 16.6341 43.6933 16.4714 43.6184C16.3087 43.5435 16.1633 43.4368 16.0441 43.3051L8.92211 36.2507Z" fill="white"/>
<path d="M22.4439 22.5469H20.0581L16.5308 16.3535V22.5469H14.1314V12.5938H16.5308L20.0513 18.7871V12.5938H22.4439V22.5469Z" fill="white"/>
</svg>
