<svg width="50" height="50" viewBox="0 0 50 50" fill="none" xmlns="http://www.w3.org/2000/svg">
<path d="M29.9875 33.352L21.3075 36.8722H43.8071C45.0301 36.8722 46.0308 35.8718 46.0308 34.6484V33.352H29.9875ZM43.8071 14.7801H39.13L43.018 24.3683C43.5907 25.7788 43.1517 27.3523 42.044 28.2826H46.0308V17.0034C46.0308 15.7806 45.0301 14.7801 43.8071 14.7801ZM9.79387 37.8427C10.2535 38.9767 11.5567 39.5274 12.69 39.0676L40.6781 27.7171C41.8114 27.2574 42.3627 25.9544 41.9029 24.8211L41.4151 23.6196L9.30662 36.6411L9.79387 37.8427ZM35.2713 8.46867C34.8116 7.33583 33.5085 6.78459 32.3746 7.24422L4.38717 18.5949C3.2539 19.0547 2.70255 20.3576 3.16215 21.491L7.40081 31.9432L39.5099 18.921L35.2713 8.46867Z" fill="#5464F8"/>
<path d="M7 31L39 17.5L41.5 24L9.5 37L7 31Z" fill="#5464F8"/>
<path d="M18.89 26.3179L28.5724 21.8714C29.068 21.6437 29.6342 21.7438 29.9967 22.0976C30.3592 22.4513 30.536 23.0103 30.3724 23.5256L29.2922 26.6627C29.0778 27.2414 28.4829 27.5145 27.9195 27.3331C27.356 27.1517 27.0676 26.5239 27.249 25.9604L27.6806 24.7218L19.8158 28.3337C19.254 28.5917 18.6271 28.3594 18.3691 27.7976C18.1111 27.2358 18.3613 26.5607 18.89 26.3179ZM27.9842 19.9807L18.3019 24.4272C17.8062 24.6549 17.24 24.5547 16.8775 24.201C16.515 23.8473 16.3382 23.2882 16.5018 22.773L17.582 19.6359C17.6892 19.3466 17.9081 19.126 18.1724 19.0046C18.4037 18.8984 18.7136 18.8761 18.9878 18.9503C19.5513 19.1317 19.8396 19.7595 19.6582 20.323L19.2267 21.5616L27.0584 17.9649C27.6202 17.7069 28.2471 17.9392 28.5051 18.501C28.7631 19.0628 28.5129 19.7379 27.9842 19.9807Z" fill="white"/>
</svg>
