<svg width="44" height="44" viewBox="0 0 44 44" fill="none" xmlns="http://www.w3.org/2000/svg">
<rect width="44" height="44" rx="12" fill="#29314F"/>
<g opacity="0.3">
<path opacity="0.3" d="M22.0001 25.25C22.6733 25.25 23.34 25.3315 23.9883 25.5H20.0119C20.6601 25.3315 21.3268 25.25 22.0001 25.25ZM22.0001 18.5C22.2739 18.5 22.5001 18.7261 22.5001 19C22.5001 19.2739 22.2739 19.5 22.0001 19.5C21.7262 19.5 21.5001 19.2739 21.5001 19C21.5001 18.7261 21.7262 18.5 22.0001 18.5Z" stroke="#BDC8F0"/>
</g>
<path d="M25.2018 24.8442C24.1704 24.4403 23.0884 24.25 22 24.25C20.9119 24.25 19.8302 24.4402 18.7991 24.8439C18.3989 24.9979 18.1225 25.139 17.9329 25.3086C17.73 25.4902 17.6568 25.6811 17.6139 25.7931C17.6106 25.8018 17.6074 25.8101 17.6044 25.8178L17.3374 26.5H18.07H25.93H26.6926L26.3885 25.8006C26.3847 25.7919 26.3807 25.7824 26.3764 25.7722C26.3313 25.6656 26.254 25.4825 26.0596 25.3086C25.8713 25.1401 25.5988 24.9989 25.2018 24.8442ZM25.2018 24.8442C25.202 24.8443 25.2022 24.8444 25.2024 24.8444L25.02 25.31M25.2018 24.8442C25.2017 24.8442 25.2016 24.8442 25.2015 24.8441L25.02 25.31M25.02 25.31C25.1999 25.3801 25.3399 25.4425 25.4502 25.5H18.5444C18.656 25.4425 18.7978 25.3801 18.98 25.31C19.95 24.93 20.97 24.75 22 24.75C23.03 24.75 24.05 24.93 25.02 25.31ZM14 24.5C14.1243 24.5 14.247 24.5045 14.3691 24.5127C14.1316 25.0951 14 25.7279 14 26.39V27.5H10.5V26.43C10.5 25.8219 10.8592 25.2808 11.4185 25.0389L11.4196 25.0384C12.2091 24.6948 13.0814 24.5 14 24.5ZM32.5804 25.0385L32.5815 25.0389C33.1408 25.2808 33.5 25.8219 33.5 26.43V27.5H30V26.39C30 25.7279 29.8684 25.0951 29.6309 24.5127C29.753 24.5045 29.8757 24.5 30 24.5C30.9186 24.5 31.7909 24.6948 32.5804 25.0385ZM15.5 21C15.5 21.8239 14.8239 22.5 14 22.5C13.1761 22.5 12.5 21.8239 12.5 21C12.5 20.1761 13.1761 19.5 14 19.5C14.8239 19.5 15.5 20.1761 15.5 21ZM31.5 21C31.5 21.8239 30.8239 22.5 30 22.5C29.1761 22.5 28.5 21.8239 28.5 21C28.5 20.1761 29.1761 19.5 30 19.5C30.8239 19.5 31.5 20.1761 31.5 21ZM22 23.25C23.5517 23.25 24.9228 23.6117 26.0369 24.1069C26.9307 24.5041 27.5 25.4013 27.5 26.39V27.5H16.5V26.39C16.5 25.4019 17.0686 24.5052 17.9614 24.1076C19.0797 23.6204 20.4511 23.25 22 23.25ZM23.5 19C23.5 18.1739 22.8261 17.5 22 17.5C21.1739 17.5 20.5 18.1739 20.5 19C20.5 19.8261 21.1739 20.5 22 20.5C22.8261 20.5 23.5 19.8261 23.5 19ZM19.5 19C19.5 17.6161 20.6161 16.5 22 16.5C23.3839 16.5 24.5 17.6161 24.5 19C24.5 20.3839 23.3839 21.5 22 21.5C20.6161 21.5 19.5 20.3839 19.5 19Z" fill="#BDC8F0" stroke="#BDC8F0"/>
</svg>
